<svg xmlns="http://www.w3.org/2000/svg" xmlns:xlink="http://www.w3.org/1999/xlink" width="73.857" height="97.049" viewBox="0 0 73.857 97.049"><defs><style>.a{fill:none;}.b{fill:#7d59ed;}.c{fill:#6145d1;}.d{clip-path:url(#a);}.e{fill:#fff;}.f{fill:#f25763;}.g{fill:#7c59ed;}</style><clipPath id="a"><path class="a" d="M0,10.291c7.568,6.182,12.641,8.153,12.641,8.153S21.208,5.1,12.443.772A6.843,6.843,0,0,0,9.392,0C3.118,0,0,10.291,0,10.291" transform="translate(0 0)"/></clipPath></defs><path class="b" d="M30.669,13.424A17.243,17.243,0,1,0,47.909,30.667,17.138,17.138,0,0,0,30.669,13.424m0,47.789A30.607,30.607,0,1,1,61.213,30.667,30.645,30.645,0,0,1,30.669,61.213" transform="translate(12.644 14.93)"/><path class="c" d="M35.961,9.559c-.387,1.6-8.747.962-18.675-1.433S-.373,2.487.014.884,8.761-.08,18.688,2.317,36.347,7.956,35.961,9.559" transform="translate(15.452 86.607)"/><path d="M.5.282,0,25.794s5.784,2.661,6.412,1.548S4.048,25,2.568,24.53L2.455,0Z" transform="translate(40.906 68.621)"/><path d="M10.616.516,6.071,20.906S-.361,20.62.016,19.447s2.4-1.177,3.992-.921L8.479,0Z" transform="translate(21.842 69.62)"/><path d="M.716,16.233a.933.933,0,0,0,.419,0l16.17-3.547a.934.934,0,1,0-.4-1.825L2.186,14.095,5.247,1.149A.935.935,0,0,0,4.557.025h0A.933.933,0,0,0,3.429.719L.025,15.11a.934.934,0,0,0,.691,1.123" transform="translate(0.669 36.225)"/><path d="M.714,1.842A.958.958,0,0,0,.9,1.868L4.278,2A.935.935,0,1,0,4.35.131L.971,0A.934.934,0,0,0,.714,1.842" transform="translate(4.846 36.915)"/><path d="M.715,5.069A.929.929,0,0,0,1.7,4.694L3.943,1.468A.934.934,0,1,0,2.409.4L.169,3.628A.932.932,0,0,0,.4,4.929a.944.944,0,0,0,.313.14" transform="translate(4.771 32.904)"/><path d="M1.877,6.477a.916.916,0,0,0,.445,0A.932.932,0,0,0,3,5.341L1.841.707a.934.934,0,1,0-1.812.456L1.189,5.794a.933.933,0,0,0,.687.682" transform="translate(2.663 32.007)"/><path d="M4.7,4.212A.934.934,0,0,0,5.4,2.5L1.412.131A.934.934,0,0,0,.457,1.737L4.443,4.106a.928.928,0,0,0,.258.106" transform="translate(0 34.798)"/><g transform="translate(48.138 3.473)"><g class="d" transform="translate(0 0)"><path class="b" d="M0,12.082S7.222-3,15.61.538s.552,20,.552,20A48.148,48.148,0,0,1,0,12.082" transform="translate(-2.465 -1.446)"/><path class="e" d="M0,10.046l7.154,4.569S11.952,4.1,9.465.1C2.242-1.171,0,10.046,0,10.046" transform="translate(7.1 4.493)"/></g></g><path class="f" d="M18.041,19.1S9.923,15.839,11.266,7.133.581-2.585.028,5.646c-.552,8.19,7.274,10.2,7.274,10.2Z" transform="translate(39.143 0)"/><path class="b" d="M1.526,22.332l.834.684a4.17,4.17,0,0,0,5.869-.58L20.479,7.5a4.167,4.167,0,0,0-.58-5.867L19.064.946a4.171,4.171,0,0,0-5.869.58L.947,16.463a4.169,4.169,0,0,0,.579,5.869" transform="translate(50.889 16.823)"/><path class="b" d="M10.2,27.127l-1.055.229a4.169,4.169,0,0,1-4.958-3.193L.1,5.282A4.171,4.171,0,0,1,3.288.324L4.344.1A4.17,4.17,0,0,1,9.3,3.289l4.088,18.88A4.17,4.17,0,0,1,10.2,27.127" transform="translate(28.557 8.73)"/><path class="g" d="M.877,23.529c-3.965,16.428,5.9,32.9,22.028,36.8s32.42-6.269,36.386-22.7-5.9-32.9-22.028-36.8S4.842,7.1.877,23.529" transform="translate(13.551 15.004)"/><path d="M3.283,2.206A10.956,10.956,0,0,1,.224.9.46.46,0,0,1,.066.269.457.457,0,0,1,.7.11C3.788,1.968,6.45,1.968,8.61.11a.462.462,0,0,1,.6.7,6.386,6.386,0,0,1-5.929,1.4" transform="translate(39.206 37.758)"/><path d="M2.455,3.971l-.015,0A3.442,3.442,0,0,1,.016.414.462.462,0,0,1,.522,0,.465.465,0,0,1,.934.51,2.486,2.486,0,0,0,2.685,3.078a.461.461,0,0,1-.23.893" transform="translate(47.307 35.837)"/><path d="M8.778,3.355.531,1.365A.692.692,0,1,1,.855.019L9.1,2.01a.692.692,0,1,1-.325,1.345" transform="translate(54.219 19.088)"/><path d="M8.778,3.356.531,1.366A.693.693,0,0,1,.855.019L9.1,2.011a.692.692,0,1,1-.325,1.345" transform="translate(36.1 14.713)"/><path class="e" d="M.287,5.826a7.449,7.449,0,0,0,4.9,9.309,7.449,7.449,0,0,0,8.9-5.6A7.445,7.445,0,0,0,9.191.23a7.447,7.447,0,0,0-8.9,5.6" transform="translate(49.191 24.174)"/><path d="M.146,3.007A3.875,3.875,0,0,0,2.693,7.833,3.838,3.838,0,0,0,7.3,4.945,3.873,3.873,0,0,0,4.75.121a3.837,3.837,0,0,0-4.6,2.886" transform="translate(52.655 27.897)"/><path class="e" d="M.287,5.826a7.449,7.449,0,0,0,4.9,9.309,7.449,7.449,0,0,0,8.9-5.6A7.445,7.445,0,0,0,9.191.23a7.447,7.447,0,0,0-8.9,5.6" transform="translate(30.515 19.667)"/><path d="M.146,3.007A3.874,3.874,0,0,0,2.693,7.833,3.839,3.839,0,0,0,7.3,4.945,3.873,3.873,0,0,0,4.75.121a3.837,3.837,0,0,0-4.6,2.886" transform="translate(33.977 23.388)"/><path d="M14.342,18.377a.934.934,0,0,0,1.153-.953L14.68.888a.934.934,0,1,0-1.866.093l.741,15.05L1.3,10.864a.934.934,0,0,0-.725,1.722L14.2,18.329a.938.938,0,0,0,.144.047" transform="translate(51.398 59.791)"/><path d="M.715,5.154l.029.007A.934.934,0,0,0,1.85,4.436l.689-3.311a.933.933,0,0,0-.7-1.1L1.815.02A.933.933,0,0,0,.71.745L.02,4.056a.935.935,0,0,0,.7,1.1" transform="translate(52.205 66.622)"/><path d="M3.523,4.587A.935.935,0,0,0,4.4,3.01L1.587.266A.934.934,0,1,0,.281,1.6L3.091,4.347a.915.915,0,0,0,.433.24" transform="translate(48.609 67.132)"/><path d="M.715,2.218a.912.912,0,0,0,.292.023l4.762-.375A.934.934,0,1,0,5.622,0L.86.378a.935.935,0,0,0-.145,1.84" transform="translate(47.005 70.895)"/><path d="M.714,5.38a.934.934,0,0,0,.932-.3l3-3.538A.934.934,0,1,0,3.22.331l-3,3.538A.934.934,0,0,0,.33,5.185a.913.913,0,0,0,.384.2" transform="translate(49.313 70.823)"/></svg>